<svg width="25" height="24" viewBox="0 0 25 24" fill="none" xmlns="http://www.w3.org/2000/svg">
<path d="M16.5459 2.08325C16.4991 2.3758 16.4757 2.66834 16.4757 2.96088C16.4757 5.59376 18.6054 7.7223 21.2266 7.7223C21.5191 7.7223 21.8 7.68837 22.0925 7.64156V17.0837C22.0925 21.0517 19.7522 23.4037 15.7736 23.4037H7.12722C3.14747 23.4037 0.807129 21.0517 0.807129 17.0837V8.42557C0.807129 4.447 3.14747 2.08325 7.12722 2.08325H16.5459ZM16.7811 9.19788C16.464 9.16278 16.1492 9.3032 15.9608 9.56064L13.1302 13.2233L9.88765 10.6723C9.68872 10.5202 9.45468 10.4605 9.22065 10.4851C8.98779 10.5202 8.77715 10.6477 8.63556 10.835L5.17303 15.3413L5.10165 15.4466C4.90272 15.8199 4.99634 16.2996 5.34739 16.5583C5.51121 16.6636 5.68674 16.7338 5.88567 16.7338C6.15597 16.7455 6.41224 16.6039 6.57607 16.3827L9.51319 12.6019L12.8482 15.1072L12.9535 15.1763C13.3279 15.3752 13.796 15.2828 14.0652 14.9305L17.4469 10.567L17.4001 10.5904C17.5874 10.3329 17.6225 10.0053 17.4937 9.71276C17.3662 9.42022 17.0842 9.22129 16.7811 9.19788ZM21.3905 0C22.9469 0 24.2106 1.26378 24.2106 2.82011C24.2106 4.37643 22.9469 5.64022 21.3905 5.64022C19.8342 5.64022 18.5704 4.37643 18.5704 2.82011C18.5704 1.26378 19.8342 0 21.3905 0Z" fill="#8F8F8F"/>
</svg>
