<svg width="27" height="26" viewBox="0 0 27 26" fill="none" xmlns="http://www.w3.org/2000/svg">
<path d="M16.2792 24.99C16.2792 24.8548 16.2792 24.7547 16.2792 24.6546C16.2792 22.4817 16.2792 20.3089 16.2792 18.131C16.2792 16.579 15.1504 15.4425 13.6119 15.4475C13.0325 15.4475 12.4431 15.4175 11.8736 15.4976C10.6299 15.6778 9.72575 16.7743 9.72575 18.0309C9.72076 20.2388 9.72575 22.4467 9.72575 24.6546C9.72575 24.7547 9.72575 24.8548 9.72575 24.99C9.62585 24.99 9.54593 24.99 9.471 24.99C8.43204 24.99 7.39307 24.99 6.3541 24.99C5.76968 24.99 5.37507 24.7096 5.19525 24.1539C3.81662 19.9284 2.44798 15.7029 1.07934 11.4774C0.889525 10.8916 1.03938 10.441 1.53888 10.0805C5.08536 7.49717 8.63683 4.9138 12.1833 2.33043C12.7877 1.88986 13.2073 1.88986 13.8167 2.33043C17.3632 4.9138 20.9146 7.49717 24.4611 10.0855C24.9606 10.446 25.1105 10.8966 24.9207 11.4874C23.552 15.7129 22.1834 19.9384 20.8147 24.1639C20.6349 24.7196 20.2403 25 19.6559 25C18.6269 25 17.5929 25 16.564 25C16.479 24.99 16.3991 24.99 16.2792 24.99ZM15.6649 12.1983C15.9945 13.2947 17.0135 13.5751 17.7328 13.2347C18.1124 13.0544 18.3722 12.764 18.507 12.3635C18.6918 11.8178 18.542 11.3322 18.1973 10.9016C18.2373 10.8465 18.2673 10.8065 18.2922 10.7664C18.6369 10.2808 18.6869 9.76012 18.4121 9.23444C18.1224 8.68372 17.6479 8.40836 17.0235 8.4434C16.4291 8.47845 16.0095 8.79386 15.7797 9.33457C15.6998 9.51981 15.6099 9.55485 15.4351 9.55485C13.8566 9.54985 12.2782 9.54985 10.6998 9.54985C10.5749 9.54985 10.45 9.54985 10.3351 9.54985C9.94553 8.38833 8.8716 8.22312 8.23223 8.56356C7.8626 8.75882 7.60785 9.05921 7.48797 9.45973C7.32813 9.99042 7.47798 10.456 7.81265 10.8766C7.77769 10.9216 7.75271 10.9567 7.72773 10.9917C7.37309 11.4924 7.30815 12.0231 7.60286 12.5638C7.89757 13.1145 8.38209 13.3849 9.00147 13.3348C9.61086 13.2847 10.0354 12.9493 10.2552 12.3785C10.3152 12.2183 10.4001 12.1933 10.5499 12.1933C11.5889 12.1983 12.6279 12.1983 13.6668 12.1983C14.3212 12.1983 14.9855 12.1983 15.6649 12.1983Z" fill="#8F8F8F"/>
</svg>
