<svg width="24" height="24" viewBox="0 0 24 24" fill="none" xmlns="http://www.w3.org/2000/svg">
<path d="M17.5122 4.25182C17.5115 4.2262 17.51 4.2007 17.5072 4.1754C17.5061 4.16566 17.5044 4.15604 17.5031 4.14629C17.5007 4.1297 17.498 4.11318 17.4949 4.09679C17.4924 4.08401 17.4898 4.07129 17.4869 4.05864C17.4834 4.04406 17.4793 4.0296 17.4751 4.01521C17.4688 3.993 17.4618 3.97112 17.4539 3.9495C17.451 3.94143 17.448 3.9333 17.4448 3.92536C17.424 3.87205 17.3985 3.82087 17.3686 3.77207C17.3675 3.7702 17.3664 3.76833 17.3652 3.76646C17.242 3.56747 17.0486 3.41083 16.8065 3.34035C16.3021 3.19345 15.7757 3.4704 15.6064 3.96176C15.6012 3.97687 15.5952 3.99152 15.5907 4.00714C15.4393 4.5271 15.7375 5.07306 16.2575 5.22448C16.7775 5.3759 17.3218 5.07616 17.4733 4.5562C17.4818 4.52748 17.4884 4.49863 17.494 4.46978C17.4955 4.46262 17.4968 4.45532 17.4982 4.44809C17.5031 4.41989 17.5071 4.39168 17.5095 4.36367C17.5099 4.35967 17.5099 4.3558 17.5102 4.35186C17.5119 4.32753 17.5127 4.30339 17.5126 4.27925C17.5126 4.27009 17.5126 4.26099 17.5122 4.25182Z" fill="#8F8F8F"/>
<path d="M15.0345 14.3721C14.9987 14.3666 14.9623 14.3624 14.9252 14.3624C14.8714 14.3624 14.8191 14.3688 14.7686 14.38L14.6937 14.3051L12.9587 12.5679L12.9316 12.5408C13.0978 12.2172 13.1132 11.8365 12.9777 11.5028C12.9689 11.4804 12.9583 11.4585 12.9479 11.4366L12.9757 11.4088L14.7121 9.67477L14.7607 9.62617C14.9806 9.66186 15.214 9.59648 15.3841 9.42712C15.6426 9.16862 15.6625 8.76239 15.4455 8.48034C15.4271 8.45588 15.4065 8.4318 15.3841 8.40947C15.1037 8.12819 14.6477 8.12819 14.3669 8.40902C14.3193 8.45672 14.2805 8.50906 14.2488 8.56489C14.1681 8.70914 14.141 8.87528 14.1669 9.03437L14.1193 9.08201L12.3773 10.8216L12.3537 10.8453C12.0064 10.6822 11.5995 10.688 11.2571 10.8642L11.2473 10.8544L9.51281 9.11757L9.4755 9.08026C9.51423 8.88638 9.47318 8.67997 9.35145 8.51371C9.32996 8.48447 9.30724 8.45575 9.28104 8.42954C9.00021 8.14872 8.54415 8.14788 8.26333 8.4287C8.22299 8.46904 8.18942 8.51287 8.1607 8.55882C7.98857 8.83668 8.022 9.20593 8.26287 9.4468C8.43985 9.62378 8.68686 9.68936 8.9156 9.64263L8.95167 9.67871L10.6922 11.4215L10.703 11.4323C10.5409 11.7685 10.539 12.1622 10.6965 12.5L10.6743 12.5222L8.92069 14.2734L8.86596 14.3281C8.85357 14.3268 8.84118 14.3246 8.82872 14.324C8.6329 14.3146 8.43365 14.3833 8.28385 14.5332C8.07906 14.7371 8.02361 15.0339 8.1172 15.2889C8.15154 15.3842 8.20653 15.4736 8.28295 15.55C8.56416 15.8312 9.01938 15.8312 9.30059 15.5509C9.48106 15.3704 9.54534 15.1181 9.49371 14.886L9.53534 14.8443L11.2615 13.1206L11.2871 13.095C11.6264 13.2577 12.0239 13.2578 12.3631 13.0947L12.3914 13.123L14.1254 14.8594L14.2172 14.9511C14.2095 14.9935 14.2048 15.0369 14.2048 15.0815C14.2048 15.1386 14.2121 15.1932 14.2242 15.246C14.2989 15.5643 14.5837 15.8017 14.9244 15.8017C15.2117 15.8017 15.4607 15.6329 15.5754 15.3882C15.6198 15.2958 15.6441 15.192 15.6441 15.0827C15.6441 14.9734 15.6197 14.8696 15.5754 14.7767C15.4754 14.564 15.2744 14.4091 15.0345 14.3721Z" fill="#8F8F8F"/>
<path d="M12 0C5.38313 0 0 5.3832 0 12C0 18.6168 5.38313 24 12 24C18.6168 24 24 18.6168 24 12C24 5.3832 18.6168 0 12 0ZM23.2255 12C23.2255 12.9534 23.1057 13.8792 22.8809 14.7635L18.5122 13.593C18.6373 13.0822 18.704 12.5487 18.704 11.9999C18.704 11.4512 18.6373 10.9177 18.5122 10.407L22.8809 9.2364C23.1056 10.1209 23.2255 11.0466 23.2255 12ZM0.774514 12C0.774514 11.0466 0.89437 10.1208 1.11911 9.23647L5.48769 10.407C5.36274 10.9179 5.29593 11.4513 5.29593 12.0001C5.29593 12.5489 5.36274 13.0823 5.48769 13.5931L1.11911 14.7637C0.89437 13.8792 0.774514 12.9534 0.774514 12ZM17.336 10.506C17.3368 10.5086 17.3375 10.5113 17.3383 10.5139C17.3562 10.5782 17.3731 10.643 17.3887 10.7082C17.4881 11.123 17.5422 11.5552 17.5422 12.0001C17.5422 12.445 17.4881 12.8773 17.3886 13.2921C17.3731 13.3571 17.3562 13.4217 17.3384 13.4858C17.3375 13.4889 17.3367 13.492 17.3358 13.4951C17.2631 13.754 17.1723 14.0053 17.0644 14.2474C17.0644 14.2475 17.0643 14.2476 17.0642 14.2476C16.9828 14.4303 16.8919 14.6078 16.7919 14.7795C16.7917 14.7799 16.7914 14.7802 16.7912 14.7807C16.5241 15.239 16.1932 15.6558 15.8107 16.0188C15.1853 16.6121 14.4225 17.0614 13.575 17.3131C13.4623 17.3467 13.348 17.3762 13.2325 17.4026C13.2162 17.4063 13.1999 17.4103 13.1835 17.414C13.1344 17.4247 13.0851 17.4345 13.0355 17.444C13.0036 17.4501 12.9715 17.4557 12.9394 17.4613C12.8964 17.4686 12.8534 17.4763 12.8101 17.4827C12.7382 17.4933 12.666 17.5026 12.5932 17.5103C12.564 17.5135 12.5344 17.5158 12.505 17.5185C12.4476 17.5237 12.3902 17.5282 12.3323 17.5316C12.3054 17.5333 12.2784 17.5349 12.2515 17.5361C12.168 17.5399 12.0843 17.5425 12 17.5425C11.9156 17.5425 11.8319 17.5399 11.7485 17.5361C11.7215 17.5349 11.6946 17.5333 11.6678 17.5316C11.61 17.5282 11.5523 17.5237 11.495 17.5185C11.4656 17.5158 11.436 17.5135 11.4067 17.5103C11.334 17.5026 11.2618 17.4933 11.1899 17.4827C11.1465 17.4763 11.1036 17.4687 11.0605 17.4612C11.0284 17.4557 10.9964 17.4501 10.9645 17.444C10.9149 17.4346 10.8653 17.4247 10.8162 17.4139C10.8002 17.4104 10.7845 17.4065 10.7686 17.4028C10.6526 17.3763 10.5377 17.3467 10.4246 17.313C9.57706 17.0613 8.81429 16.6118 8.18887 16.0183C7.99776 15.8369 7.81956 15.6422 7.65575 15.4356C7.65556 15.4353 7.6553 15.435 7.6551 15.4346C7.49155 15.2282 7.34239 15.0099 7.20911 14.7812C7.2086 14.7802 7.20808 14.7793 7.20756 14.7784C7.10804 14.6075 7.01742 14.4306 6.93629 14.2487C6.93603 14.2481 6.93571 14.2474 6.93545 14.2469C6.90841 14.1863 6.88246 14.1249 6.85755 14.0632C6.85742 14.0628 6.85729 14.0623 6.8571 14.0619C6.783 13.8777 6.71859 13.6886 6.66431 13.4953C6.6634 13.492 6.6625 13.4889 6.6616 13.4858C6.64378 13.4217 6.62694 13.3572 6.61138 13.2921C6.51186 12.8773 6.45777 12.4451 6.45777 12.0001C6.45777 11.5552 6.51192 11.1229 6.61138 10.7081C6.62694 10.6431 6.64372 10.5786 6.6616 10.5145C6.6625 10.5114 6.6634 10.5082 6.66431 10.505C6.71852 10.3117 6.78287 10.1226 6.85697 9.9385C6.85716 9.93798 6.85735 9.93747 6.85755 9.93702C6.8824 9.87525 6.90834 9.81413 6.93532 9.75352C6.93564 9.75281 6.93597 9.7521 6.93629 9.75133C7.01729 9.56957 7.10791 9.39299 7.20731 9.22214C7.20795 9.22104 7.20853 9.21994 7.20918 9.21891C7.34233 8.99043 7.49136 8.77234 7.65472 8.566C7.6551 8.56548 7.65556 8.56496 7.65594 8.56445C7.81969 8.35791 7.99776 8.16325 8.18874 7.98201C8.81462 7.38809 9.57803 6.93848 10.4263 6.68677C10.5383 6.65353 10.6519 6.62423 10.7667 6.59796C10.7834 6.59415 10.8 6.59002 10.8167 6.5864C10.8655 6.57569 10.9148 6.56588 10.9641 6.55646C10.9963 6.55032 11.0286 6.54464 11.061 6.53909C11.1038 6.53167 11.1465 6.52412 11.1897 6.51773C11.2616 6.50714 11.334 6.49785 11.4068 6.49004C11.436 6.48688 11.4655 6.48468 11.4948 6.48197C11.5523 6.47675 11.6098 6.47223 11.6677 6.46874C11.6946 6.46713 11.7214 6.46551 11.7484 6.46429C11.8319 6.46048 11.9156 6.4579 11.9999 6.4579C12.0843 6.4579 12.168 6.46054 12.2515 6.46429C12.2784 6.46551 12.3053 6.46713 12.3321 6.46874C12.39 6.47216 12.4477 6.47675 12.505 6.48197C12.5344 6.48468 12.5639 6.48694 12.5931 6.49004C12.6659 6.49785 12.7382 6.50714 12.8101 6.51773C12.8533 6.52412 12.896 6.53167 12.9389 6.53909C12.9712 6.54464 13.0036 6.55032 13.0357 6.55646C13.0852 6.56588 13.1343 6.57569 13.1832 6.5864C13.1999 6.59008 13.2165 6.59415 13.2332 6.59796C13.3479 6.62423 13.4615 6.65359 13.5734 6.68677C14.4216 6.93842 15.1847 7.38783 15.8105 7.98156C16.0019 8.16312 16.1802 8.3581 16.3442 8.56503C16.3443 8.56503 16.3444 8.56509 16.3444 8.56509C16.5082 8.77182 16.6575 8.99049 16.791 9.21949C16.7913 9.22007 16.7917 9.22065 16.792 9.22117C16.8918 9.39266 16.9828 9.57003 17.0641 9.75255C17.0642 9.75268 17.0642 9.75281 17.0642 9.75294C17.0915 9.81387 17.1175 9.87538 17.1425 9.93747C17.217 10.1222 17.2816 10.3119 17.336 10.506ZM16.6331 7.15903C15.8653 6.42388 14.9235 5.8694 13.8765 5.56359L15.0471 1.19495C16.8709 1.70993 18.5072 2.67575 19.8287 3.96332L16.6331 7.15903ZM10.1235 5.56359C9.07647 5.86933 8.13466 6.42395 7.36686 7.15909L4.17121 3.96345C5.49272 2.67582 7.12908 1.71 8.95293 1.19495L10.1235 5.56359ZM7.36679 16.8408C8.13459 17.576 9.0764 18.1306 10.1234 18.4364L8.95287 22.8051C7.12902 22.29 5.49266 21.3242 4.17115 20.0365L7.36679 16.8408ZM13.8765 18.4364C14.9235 18.1307 15.8653 17.5761 16.6331 16.841L19.8287 20.0366C18.5072 21.3242 16.8709 22.2901 15.047 22.8051L13.8765 18.4364Z" fill="#8F8F8F"/>
</svg>
