<svg width="24" height="25" viewBox="0 0 24 25" fill="none" xmlns="http://www.w3.org/2000/svg">
<path d="M12.5725 0.914246C13.4719 0.914246 14.2862 1.41375 14.7359 2.15112C14.9547 2.50791 15.1006 2.94795 15.0641 3.41178C15.0398 3.76857 15.1492 4.12536 15.3436 4.45836C15.9635 5.46927 17.3369 5.84984 18.4065 5.27898C19.6098 4.58919 21.129 5.00544 21.8218 6.18285L22.6361 7.58622C23.3411 8.76363 22.9521 10.274 21.7367 10.9519C20.7036 11.5585 20.339 12.9024 20.9589 13.9252C21.1533 14.2463 21.3721 14.5198 21.7124 14.6863C22.1378 14.9123 22.466 15.2691 22.6969 15.6259C23.1466 16.3633 23.1101 17.2671 22.6726 18.064L21.8218 19.4911C21.3721 20.2523 20.5335 20.728 19.6705 20.728C19.2451 20.728 18.7711 20.6091 18.3822 20.3712C18.0662 20.169 17.7015 20.0977 17.3126 20.0977C16.1094 20.0977 15.1006 21.0848 15.0641 22.2622C15.0641 23.6299 13.9459 24.7003 12.5482 24.7003H10.8952C9.48534 24.7003 8.36716 23.6299 8.36716 22.2622C8.34285 21.0848 7.33406 20.0977 6.1308 20.0977C5.72971 20.0977 5.36509 20.169 5.06123 20.3712C4.6723 20.6091 4.18614 20.728 3.7729 20.728C2.8978 20.728 2.05916 20.2523 1.60946 19.4911L0.770821 18.064C0.321117 17.2909 0.296809 16.3633 0.746512 15.6259C0.940979 15.2691 1.3056 14.9123 1.71884 14.6863C2.05916 14.5198 2.27794 14.2463 2.48456 13.9252C3.09226 12.9024 2.72764 11.5585 1.69454 10.9519C0.491275 10.274 0.102342 8.76363 0.795129 7.58622L1.60946 6.18285C2.3144 5.00544 3.82151 4.58919 5.03693 5.27898C6.09434 5.84984 7.46776 5.46927 8.08762 4.45836C8.28208 4.12536 8.39147 3.76857 8.36716 3.41178C8.34285 2.94795 8.47655 2.50791 8.70748 2.15112C9.15718 1.41375 9.97151 0.938032 10.8588 0.914246H12.5725ZM11.7339 9.45343C9.82566 9.45343 8.28208 10.9519 8.28208 12.8191C8.28208 14.6863 9.82566 16.173 11.7339 16.173C13.6421 16.173 15.1492 14.6863 15.1492 12.8191C15.1492 10.9519 13.6421 9.45343 11.7339 9.45343Z" fill="#8F8F8F"/>
</svg>
